/* XPM */
static char * atcttxpm[] = {
"16 16 108 2",
"  	c None",
". 	c #512FB2",
"+ 	c #5636B3",
"@ 	c #624AB3",
"# 	c #6C5EB1",
"$ 	c #7871B1",
"% 	c #512FB3",
"& 	c #7668A3",
"* 	c #634CB4",
"= 	c #6E5FB1",
"- 	c #7973B2",
"; 	c #8586B0",
"> 	c #909AB0",
", 	c #512EB3",
"' 	c #5231B3",
") 	c #89859A",
"! 	c #516436",
"~ 	c #635B84",
"{ 	c #6E60B3",
"] 	c #7B75B2",
"^ 	c #8788B1",
"/ 	c #919BB0",
"( 	c #95A2AF",
"_ 	c #6243B8",
": 	c #79846A",
"< 	c #4C5B44",
"[ 	c #675E8C",
"} 	c #7063B3",
"| 	c #7B76B1",
"1 	c #8284AD",
"2 	c #DADBDA",
"3 	c #D4D6D7",
"4 	c #96A3B0",
"5 	c #4F2DB2",
"6 	c #5B3FAB",
"7 	c #625395",
"8 	c #7269B1",
"9 	c #6771A3",
"0 	c #7178A5",
"a 	c #8084A8",
"b 	c #E5E5E3",
"c 	c #E0E1DF",
"d 	c #9AA4AF",
"e 	c #5B3EB3",
"f 	c #8684B9",
"g 	c #A7B4CB",
"h 	c #8590B5",
"i 	c #8185A8",
"j 	c #A8B0BC",
"k 	c #9BA4AD",
"l 	c #5B40B3",
"m 	c #8E8DBD",
"n 	c #8F9BBB",
"o 	c #A5A8C7",
"p 	c #7C809E",
"q 	c #97A3B1",
"r 	c #502EB3",
"s 	c #5A3FB1",
"t 	c #6A5BA9",
"u 	c #6B62A9",
"v 	c #76739F",
"w 	c #CACBCF",
"x 	c #CFCFD0",
"y 	c #93A0AE",
"z 	c #94A1AF",
"A 	c #9EAAB6",
"B 	c #B2BBC4",
"C 	c #5332B1",
"D 	c #ABAAB4",
"E 	c #CACDC9",
"F 	c #827CA4",
"G 	c #8482B2",
"H 	c #AEAEB0",
"I 	c #96A0A9",
"J 	c #9CA8B4",
"K 	c #A3AFBA",
"L 	c #BEC6CE",
"M 	c #B8C0C9",
"N 	c #97A4B1",
"O 	c #5130B2",
"P 	c #A096C7",
"Q 	c #9A99A3",
"R 	c #7268AF",
"S 	c #8280B1",
"T 	c #8B92B0",
"U 	c #A8B2BD",
"V 	c #B3BDC5",
"W 	c #A2ADB9",
"X 	c #ACB6C0",
"Y 	c #5F47B2",
"Z 	c #6B5CAF",
"` 	c #776EB1",
" .	c #8281B1",
"..	c #8991AD",
"+.	c #C0C8CF",
"@.	c #A7B1BC",
"#.	c #6C5DB1",
"$.	c #7870B1",
"%.	c #8383B1",
"&.	c #BCC1D1",
"*.	c #B4BDC6",
"=.	c #A3AEBA",
"-.	c #96A3AF",
";.	c #8585B1",
">.	c #ABB2C5",
",.	c #919FAC",
"'.	c #96A2B0",
").	c #929BB0",
"                                ",
"      . + @ # $                 ",
"    . % & * = - ; >             ",
"  , ' ) ! ~ { ] ^ / (           ",
"  % _ : < [ } | 1 2 3 4         ",
"  . 5 6 7 8 9 0 a b c d 4       ",
"  % % % e f g h i j k ( ( 4     ",
"  , . % l m n o p q 4 4 4 4     ",
"    r ' s t u v w x y z A B     ",
"    r C D E F G H I J K L M N   ",
"      O P Q R S T U V W X ( (   ",
"        Y Z `  ...+.@.A ( 4 4   ",
"          #.$.%.&.*.=.( 4 -.    ",
"            $ ;.>.,.( 4 '.4     ",
"                ).-.( (         ",
"                                "};
